<svg xmlns="http://www.w3.org/2000/svg" viewBox="4.9 -88.1 924.2 924.2"><path fill="#39ff14" d="M828 180v3a1685 1685 0 0 1-31.625 17.313l-1.81.966-1.818.972-3.638 1.944-1.814.97c-15.34 8.204-30.61 16.539-45.877 24.878q-5.399 2.948-10.805 5.883a2223 2223 0 0 0-28.863 15.949c-9.662 5.436-19.397 10.722-29.172 15.951a878 878 0 0 0-20.703 11.486c-9.876 5.642-19.897 10.981-29.957 16.286a951 951 0 0 0-28.739 15.794c-7.537 4.295-15.198 8.32-22.906 12.3-7.312 3.784-14.518 7.728-21.699 11.753-5.086 2.85-10.204 5.642-15.324 8.43l-2.802 1.526-5.642 3.071a7751 7751 0 0 0-8.251 4.5 11133 11133 0 0 1-37.532 20.391 15108 15108 0 0 0-14.898 8.075l-2.958 1.603a3989 3989 0 0 1-16.034 8.643l-3.481 1.867q-3.285 1.761-6.573 3.517c-6.133 3.29-12.165 6.714-18.165 10.238-8.742 5.083-17.733 9.69-26.731 14.297-9.751 4.995-19.469 10.033-29.058 15.334-11.314 6.25-22.815 12.125-34.315 18.023l-2.103 1.08c-.342.174-.342.174-2.072 1.061A1285 1285 0 0 0 307.5 465c-8.63 4.572-17.315 9.034-26 13.5-9.437 4.852-18.864 9.718-28.242 14.684-7.558 3.993-15.16 7.901-22.758 11.816-8.391 4.323-16.78 8.65-25.125 13.063C192.63 524.798 179.812 531.393 167 538l-2.203 1.136a22262 22262 0 0 1-18.289 9.425c-8.32 4.288-16.654 8.545-25.053 12.679-3.167 1.569-6.213 3.211-9.23 5.055L109 568l-3-1a1255 1255 0 0 1 34.02-24.832l4.23-2.98 2.15-1.514a1413 1413 0 0 0 15.662-11.236 824 824 0 0 1 18.763-13.208c11.858-8.106 23.62-16.346 35.238-24.793 6.885-5.004 13.866-9.849 20.904-14.635 6.609-4.497 13.144-9.09 19.666-13.712a2797 2797 0 0 1 14.18-9.965l2.528-1.769 10.22-7.147a6637 6637 0 0 0 28.006-19.67A4104 4104 0 0 1 328 410c6.238-4.362 12.47-8.734 18.688-13.125l2.103-1.485q5.12-3.618 10.236-7.242A3452 3452 0 0 1 383.5 371c14.168-9.845 28.25-19.794 42.227-29.91a2303 2303 0 0 1 24.384-17.396c8.917-6.28 17.773-12.64 26.605-19.04a11768 11768 0 0 1 13.817-9.992c4.456-3.218 8.925-6.415 13.404-9.6 6.388-4.543 12.69-9.2 18.994-13.86 6.968-5.145 14-10.197 21.069-15.202a236 236 0 0 0-23.503-1.12l-3.31-.003q-5.438 0-10.875.01l-7.838-.001q-8.41 0-16.82.008-12.158.011-24.317.012-19.731.004-39.462.019a98910 98910 0 0 1-52.57.025q-49.153.016-98.305.05v-2l1.773-.579c15.381-5.036 30.63-10.38 45.828-15.946q5.43-1.982 10.867-3.945c20.306-7.36 20.306-7.36 29.54-11.17 15.085-6.18 29.24-8.953 45.442-9.77 11.552-.617 23.086-1.44 34.624-2.274l3.566-.256c33.05-2.373 66.09-4.867 99.133-7.347q28.775-2.16 57.551-4.31l2.923-.22a43441 43441 0 0 1 85.206-6.29q22.105-1.61 44.21-3.208C761.121 185.27 794.567 182.737 828 180"/><path fill="#ff7a1a" d="M789 271v3c-1.344 1.328-1.344 1.328-3.254 2.68l-2.156 1.544-2.375 1.651-2.46 1.74c-8.105 5.704-16.34 11.213-24.608 16.677-4.55 3.007-9.09 6.026-13.631 9.044-.94.623-1.878 1.247-2.845 1.89-12.442 8.27-24.816 16.64-37.194 25.004A4752 4752 0 0 1 671 354l-6.187 4.125-26.489 17.658a6065 6065 0 0 0-6.491 4.335 3196 3196 0 0 1-21.517 14.253c-18.754 12.32-37.473 24.69-56.066 37.254l-2.46 1.662c-8.686 5.87-17.356 11.763-25.976 17.729-5.892 4.068-11.853 8.01-17.814 11.984h218v2c-38.768 16.405-38.768 16.405-51.668 21.461-3.613 1.423-7.184 2.899-10.723 4.496l-2.166.976a688 688 0 0 0-5.67 2.622c-8.449 3.52-17.92 3.995-26.932 4.86l-5.95.59q-3.195.317-6.39.629c-7.776.76-15.55 1.543-23.323 2.324l-2.478.249c-18.514 1.857-37.016 3.827-55.516 5.82l-7.766.836q-11.866 1.276-23.732 2.557-29.017 3.128-58.038 6.236l-2.73.293C337.33 530.266 337.33 530.266 289.5 534.563l-2.732.246q-3.618.324-7.237.632l-3.888.335c-3.899.24-7.738.263-11.643.224 8.475-9.047 21.36-14.48 32.065-20.434a1145 1145 0 0 0 22.373-12.816c7.547-4.427 15.124-8.78 22.787-13.004 5.929-3.268 11.823-6.594 17.712-9.933 12.387-7.015 24.826-13.933 37.28-20.826l5.42-3.001a4741 4741 0 0 1 43.703-23.923 2510 2510 0 0 0 13.526-7.37c11.245-6.16 22.557-12.189 33.886-18.193a5432 5432 0 0 0 26.81-14.312c11.247-6.038 22.546-11.967 33.873-17.853 12.288-6.395 24.52-12.898 36.753-19.397l2.05-1.09q10.62-5.639 21.23-11.297 4.245-2.265 8.494-4.527l3.984-2.127q5.574-2.983 11.176-5.914 1.9-.995 3.797-1.997c10.357-5.448 20.88-9.745 31.894-13.673l5.004-1.815q5.112-1.857 10.23-3.703c7.46-2.697 14.894-5.465 22.328-8.233l4.265-1.585c24.823-9.23 49.634-18.493 74.36-27.977"/></svg>