<svg xmlns="http://www.w3.org/2000/svg" viewBox="4.9 -88.1 924.2 924.2"><rect width="924.2" height="924.2" x="4.9" y="-88.1" fill="#0c1116" rx="203.3"/><path fill="#8bc53f" d="M828 180v3a1685 1685 0 0 1-31.625 17.313l-1.81.966-1.818.972-3.638 1.944-1.814.97c-15.34 8.204-30.61 16.539-45.877 24.878q-5.399 2.948-10.805 5.883a2223 2223 0 0 0-28.863 15.949c-9.662 5.436-19.397 10.722-29.172 15.951a878 878 0 0 0-20.703 11.486c-9.876 5.642-19.897 10.981-29.957 16.286a951 951 0 0 0-28.739 15.794c-7.537 4.295-15.198 8.32-22.906 12.3-7.312 3.784-14.518 7.728-21.699 11.753-5.086 2.85-10.204 5.642-15.324 8.43l-2.802 1.526-5.642 3.071a7751 7751 0 0 0-8.251 4.5 11133 11133 0 0 1-37.532 20.391 15108 15108 0 0 0-14.898 8.075l-2.958 1.603a3989 3989 0 0 1-16.034 8.643l-3.481 1.867q-3.285 1.761-6.573 3.517c-6.133 3.29-12.165 6.714-18.165 10.238-8.742 5.083-17.733 9.69-26.731 14.297-9.751 4.995-19.469 10.033-29.058 15.334-11.314 6.25-22.815 12.125-34.315 18.023l-2.103 1.08c-.342.174-.342.174-2.072 1.061A1285 1285 0 0 0 307.5 465c-8.63 4.572-17.315 9.034-26 13.5-9.437 4.852-18.864 9.718-28.242 14.684-7.558 3.993-15.16 7.901-22.758 11.816-8.391 4.323-16.78 8.65-25.125 13.063C192.63 524.798 179.812 531.393 167 538l-2.203 1.136a22262 22262 0 0 1-18.289 9.425c-8.32 4.288-16.654 8.545-25.053 12.679-3.167 1.569-6.213 3.211-9.23 5.055L109 568l-3-1a1255 1255 0 0 1 34.02-24.832l4.23-2.98 2.15-1.514a1413 1413 0 0 0 15.662-11.236 824 824 0 0 1 18.763-13.208c11.858-8.106 23.62-16.346 35.238-24.793 6.885-5.004 13.866-9.849 20.904-14.635 6.609-4.497 13.144-9.09 19.666-13.712a2797 2797 0 0 1 14.18-9.965l2.528-1.769 10.22-7.147a6637 6637 0 0 0 28.006-19.67A4104 4104 0 0 1 328 410c6.238-4.362 12.47-8.734 18.688-13.125l2.103-1.485q5.12-3.618 10.236-7.242A3452 3452 0 0 1 383.5 371c14.168-9.845 28.25-19.794 42.227-29.91a2303 2303 0 0 1 24.384-17.396c8.917-6.28 17.773-12.64 26.605-19.04a11768 11768 0 0 1 13.817-9.992c4.456-3.218 8.925-6.415 13.404-9.6 6.388-4.543 12.69-9.2 18.994-13.86 6.968-5.145 14-10.197 21.069-15.202a236 236 0 0 0-23.503-1.12l-3.31-.003q-5.438 0-10.875.01l-7.838-.001q-8.41 0-16.82.008-12.158.011-24.317.012-19.731.004-39.462.019a98910 98910 0 0 1-52.57.025q-49.153.016-98.305.05v-2l1.773-.579c15.381-5.036 30.63-10.38 45.828-15.946q5.43-1.982 10.867-3.945c20.306-7.36 20.306-7.36 29.54-11.17 15.085-6.18 29.24-8.953 45.442-9.77 11.552-.617 23.086-1.44 34.624-2.274l3.566-.256c33.05-2.373 66.09-4.867 99.133-7.347q28.775-2.16 57.551-4.31l2.923-.22a43441 43441 0 0 1 85.206-6.29q22.105-1.61 44.21-3.208C761.121 185.27 794.567 182.737 828 180"/><path fill="none" d="m1341.624 220.733 2.303-.014c2.543-.013 5.086-.011 7.629-.01q2.737-.008 5.476-.02c4.96-.018 9.918-.022 14.878-.024q4.656-.001 9.313-.01 16.27-.028 32.543-.026c10.08.002 20.159-.02 30.238-.051q13.011-.038 26.022-.036c5.17 0 10.342-.005 15.513-.026q7.312-.029 14.626-.005 2.665.003 5.33-.015c20.325-.13 40.219 3.386 55.388 18.133 9.325 10.444 13.116 23.484 12.496 37.336-.724 9.474-3.924 18.237-7.54 26.933l-.918 2.22c-3.09 7.388-6.387 14.673-9.79 21.922-1.009 2.153-2.001 4.313-2.994 6.474-6.773 14.563-14.748 27.081-26.137 38.486l-2.43 2.465c-17.681 16.957-43.253 25.171-67.351 25.851l-2.118.063q-3.3.096-6.601.184l-4.516.13q-5.491.16-10.984.307l1.126 1.446 5.249 6.742 1.94 2.493q5.434 6.981 10.81 14.007c4.047 5.272 8.18 10.471 12.342 15.654 4.769 5.94 9.477 11.927 14.174 17.924q3.427 4.37 6.859 8.734l2.75 3.5 1.375 1.75 27.5 35.001 2.743 3.49a11220 11220 0 0 1 9.82 12.509l1.385 1.766c2.744 3.493 5.514 6.964 8.302 10.422q1.816 2.279 3.625 4.562l1.637 2.027c1.426 1.848 1.426 1.848 3.363 4.973-.523 3.523-.523 3.523-2 5-1.82.104-3.643.139-5.466.145l-3.54.02-3.857.003-3.936.01q-4.133.009-8.264.007c-3.528 0-7.055.014-10.582.031-3.365.014-6.729.013-10.093.014l-3.839.022-3.569-.01-3.14.005c-3.523-.32-5.731-1.201-8.155-3.78l-1.336-1.819-1.535-2.054-1.625-2.219q-1.746-2.333-3.497-4.664l-1.796-2.392c-2.676-3.506-5.467-6.914-8.27-10.319a525 525 0 0 1-12.937-16.437c-6.137-8.105-12.573-15.938-19.068-23.756-5.606-6.774-11.003-13.718-16.43-20.636a1435 1435 0 0 0-9.99-12.57 1019 1019 0 0 1-5.888-7.468 1036 1036 0 0 0-13.75-17.195c-4.727-5.788-9.315-11.656-13.847-17.598-3.472-4.513-7.09-8.906-10.692-13.315-4.08-5-8.109-10.038-12.059-15.142-2.052-2.646-4.126-5.21-6.335-7.73-5.386-6.19-5.386-6.19-5.77-9.321.266-1.957.266-1.957 1.266-4.832 5.634-3.637 10.83-3.416 17.399-3.369l3.456-.011q3.71-.01 7.42 0c3.924.009 7.847-.001 11.77-.017 9.75-.036 19.499-.042 29.248-.04q12.349.005 24.698-.048c3.849-.01 7.697.001 11.547.014 22.516-.035 22.516-.035 32.462-4.529l3.613-1.605 2.7-1.582 2.738-1.543c7.801-6.004 12.61-13.497 16.949-22.207l1.538-3.02c15.977-31.661 15.977-31.661 12.337-43.793-3.729-6.463-8-8.662-14.92-10.638-5.554-1.15-11.108-1.001-16.758-.953h-4.083c-3.665-.002-7.33.016-10.994.037-3.841.019-7.682.02-11.523.024q-10.89.017-21.78.064c-8.27.034-16.542.05-24.813.065q-25.502.048-51.004.151l-.846 1.698q-1.933 3.88-3.869 7.759l-1.33 2.67a747 747 0 0 1-8.517 16.56l-1.337 2.525-1.136 2.143c-4.262 8.08-8.418 16.216-12.593 24.34-4.166 8.104-8.347 16.196-12.622 24.243-4.46 8.403-8.69 16.917-12.928 25.435-4.412 8.852-8.966 17.62-13.612 26.352q-3.177 5.976-6.335 11.963l-1.126 2.118c-2.58 4.886-5.067 9.815-7.53 14.76a1272 1272 0 0 1-8.367 16.512l-1.043 2.02q-2.147 4.153-4.3 8.304c-7.247 13.97-7.247 13.97-10.622 21.075l-1.348 2.815a277 277 0 0 0-2.32 5.01l-1.043 2.19-.847 1.855c-2.521 3.135-5.616 4.444-9.583 4.928-2.695.122-5.373.14-8.07.123l-2.98.01q-3.105.002-6.21-.017c-3.173-.016-6.346 0-9.52.02q-3.02-.004-6.04-.013l-2.879.019-2.67-.029-2.348-.007c-2.52-.473-3.417-1.441-5.029-3.381.596-3.763 1.676-6.663 3.457-10.023l1.593-3.036 1.763-3.316q1.91-3.636 3.816-7.273l1.037-1.974c5.019-9.566 9.914-19.196 14.83-28.815 4.416-8.643 8.862-17.268 13.399-25.848 3.633-6.875 7.2-13.78 10.726-20.711l1.444-2.838a9292 9292 0 0 0 5.828-11.475c5.564-10.972 11.247-21.85 17.22-32.605 3.813-6.888 7.37-13.878 10.834-20.945 2.008-4.083 4.045-8.152 6.076-12.223l2.657-5.326 1.346-2.7 2.687-5.393c5.112-10.271 10.305-20.487 15.682-30.622a530 530 0 0 0 7.906-15.592l1.017-2.08a1262 1262 0 0 0 4.018-8.275 796 796 0 0 1 3.027-6.207l.888-1.878c2.386-4.804 5.151-7.55 9.934-9.935 3.513-1.136 6.788-1.193 10.44-1.177m-131.175 25.904 2.71-.002q2.822.004 5.645.029c2.884.024 5.766.02 8.65.014q2.747.007 5.494.021l2.614-.003 2.428.03 2.132.013C1242 247 1242 247 1245 249c-.5 5.34-1.888 9.408-4.418 14.152l-2.193 4.25-1.178 2.26c-2.11 4.072-4.15 8.178-6.2 12.28l-2.624 5.232c-7.519 15.003-14.996 30.013-22.176 45.181-3.288 6.94-6.747 13.792-10.211 20.645-4.629 9.16-9.165 18.35-13.504 27.652-2.268 4.839-4.625 9.63-7.022 14.406q-4.651 9.285-9.266 18.59a19443 19443 0 0 1-12.477 25.098 8887 8887 0 0 0-7.497 15.088 6101 6101 0 0 1-7.322 14.722q-1.39 2.79-2.77 5.583a1810 1810 0 0 1-3.868 7.766l-1.136 2.317c-2.496 4.954-4.613 8.936-10.138 10.778-2.308.1-4.618.14-6.928.147l-2.15.011q-3.574.015-7.15.019l-5.12.02c-5.615.021-11.231.031-16.847.041l-5.812.013q-13.667.029-27.335.041-15.732.015-31.466.077-12.182.044-24.365.048c-4.842.002-9.684.011-14.527.036q-6.852.034-13.705.018-2.496-.001-4.99.02c-15.031.118-30.172-1.227-42.605-10.491l-1.758-1.215C908.322 477.875 905.58 469.41 904 460c-1.254-10.993 1.868-21.782 6.074-31.832l.922-2.218c3.592-8.516 7.661-16.792 11.754-25.075q2.396-4.878 4.79-9.758l1.175-2.394c2.745-5.593 5.42-11.215 8.064-16.857 11.925-25.391 27.482-44.709 54.365-54.66a184 184 0 0 1 6.481-2.081l1.913-.58c11.558-3.206 23.34-3.838 35.27-3.772h4.262c3.81-.002 7.618.01 11.427.024 3.999.013 7.997.014 11.996.016 7.55.006 15.1.023 22.65.043 8.605.022 17.21.033 25.815.043q26.52.032 53.042.101l7.693-15.382c6.576-13.146 6.576-13.146 9.754-19.563 1.186-2.387 2.389-4.766 3.594-7.144a466 466 0 0 0 2.063-4.166 702 702 0 0 1 3.521-7.058l1.056-2.196 1.046-2.042.893-1.802c4.436-5.294 10.508-5.078 16.83-5.01M991.741 367.293c-4.7 5.456-7.499 11.779-10.492 18.27l-1.82 3.864q-1.84 3.906-3.665 7.82a647 647 0 0 1-4.976 10.347l-1.497 3.068q-1.364 2.79-2.74 5.577c-9.008 18.62-9.008 18.62-6.443 26.855 1.989 4.256 4.482 6.37 8.823 8.02 5.244 1.39 10.583 1.148 15.97 1.113h3.58q4.83-.001 9.661-.024c3.373-.013 6.745-.014 10.118-.016q9.567-.011 19.134-.043c7.265-.022 14.53-.033 21.795-.043q22.405-.033 44.81-.101l1.732-3.563q3.224-6.631 6.452-13.26l2.776-5.707c5.071-10.436 10.16-20.847 15.602-31.095 4.496-8.48 8.716-17.064 12.788-25.756 1.86-3.956 3.723-7.832 5.962-11.588C1141 358 1141 358 1141 355c-2.418-1.21-3.944-1.128-6.646-1.134l-2.97-.013-3.269.002-3.435-.01q-5.65-.013-11.301-.013l-7.85-.01q-8.245-.009-16.49-.007-9.499-.001-18.998-.026a7303 7303 0 0 0-18.318-.018q-3.885 0-7.768-.013c-3.635-.01-7.27-.007-10.906 0-1.06-.007-2.121-.012-3.214-.018-14.187.06-28.024 2.784-38.093 13.553"/><path fill="#f47a20" d="M789 271v3c-1.344 1.328-1.344 1.328-3.254 2.68l-2.156 1.544-2.375 1.651-2.46 1.74c-8.105 5.704-16.34 11.213-24.608 16.677-4.55 3.007-9.09 6.026-13.631 9.044-.94.623-1.878 1.247-2.845 1.89-12.442 8.27-24.816 16.64-37.194 25.004A4752 4752 0 0 1 671 354l-6.187 4.125-26.489 17.658a6065 6065 0 0 0-6.491 4.335 3196 3196 0 0 1-21.517 14.253c-18.754 12.32-37.473 24.69-56.066 37.254l-2.46 1.662c-8.686 5.87-17.356 11.763-25.976 17.729-5.892 4.068-11.853 8.01-17.814 11.984h218v2c-38.768 16.405-38.768 16.405-51.668 21.461-3.613 1.423-7.184 2.899-10.723 4.496l-2.166.976a688 688 0 0 0-5.67 2.622c-8.449 3.52-17.92 3.995-26.932 4.86l-5.95.59q-3.195.317-6.39.629c-7.776.76-15.55 1.543-23.323 2.324l-2.478.249c-18.514 1.857-37.016 3.827-55.516 5.82l-7.766.836q-11.866 1.276-23.732 2.557-29.017 3.128-58.038 6.236l-2.73.293C337.33 530.266 337.33 530.266 289.5 534.563l-2.732.246q-3.618.324-7.237.632l-3.888.335c-3.899.24-7.738.263-11.643.224 8.475-9.047 21.36-14.48 32.065-20.434a1145 1145 0 0 0 22.373-12.816c7.547-4.427 15.124-8.78 22.787-13.004 5.929-3.268 11.823-6.594 17.712-9.933 12.387-7.015 24.826-13.933 37.28-20.826l5.42-3.001a4741 4741 0 0 1 43.703-23.923 2510 2510 0 0 0 13.526-7.37c11.245-6.16 22.557-12.189 33.886-18.193a5432 5432 0 0 0 26.81-14.312c11.247-6.038 22.546-11.967 33.873-17.853 12.288-6.395 24.52-12.898 36.753-19.397l2.05-1.09q10.62-5.639 21.23-11.297 4.245-2.265 8.494-4.527l3.984-2.127q5.574-2.983 11.176-5.914 1.9-.995 3.797-1.997c10.357-5.448 20.88-9.745 31.894-13.673l5.004-1.815q5.112-1.857 10.23-3.703c7.46-2.697 14.894-5.465 22.328-8.233l4.265-1.585c24.823-9.23 49.634-18.493 74.36-27.977"/><path fill="none" d="m1932.61 306.839 3.452-.015q5.63-.021 11.258-.027l3.904-.009q9.174-.02 18.35-.027 10.53-.007 21.059-.05c6.114-.025 12.227-.033 18.34-.035q3.877-.004 7.753-.024c38.492-.182 38.492-.182 53.602 12.266 7.282 7.665 8.003 15.703 8.07 25.945-.644 10.052-4.364 18.94-8.835 27.825l-3.286 6.683-1.676 3.382a933 933 0 0 0-5.613 11.635c-6.706 14.082-13.584 28.08-20.446 42.088-6.048 12.347-12.082 24.7-17.954 37.131C2013.17 489.22 2013.17 489.22 2009 492c-2.094.247-2.094.247-4.531.243l-2.771.01-2.983-.023h-3.067q-3.21-.006-6.418-.024c-3.283-.018-6.566-.02-9.85-.02l-6.228-.018-2.989-.003-2.76-.02-2.436-.011C1963 492 1963 492 1961 491c.482-6.188 2.549-10.772 5.361-16.258l1.37-2.733c1.496-2.978 3.006-5.948 4.515-8.92l3.152-6.268q4.158-8.266 8.339-16.521c4.427-8.753 8.84-17.513 13.248-26.276q2.29-4.54 4.59-9.074c4.844-9.585 9.59-19.215 14.14-28.944l1.312-2.734c2.599-5.647 4.079-10.292 2.348-16.522-3.33-4.238-8.299-5.093-13.375-5.75a222 222 0 0 0-8.05-.145l-2.377-.01q-3.873-.013-7.745-.013l-5.418-.01q-5.673-.009-11.347-.007c-4.826 0-9.652-.014-14.478-.031q-5.595-.015-11.19-.013-2.668 0-5.335-.013c-22.177-.088-22.177-.088-32.185 4.805l-2.82 1.316c-9.744 6.766-14.207 16.697-19.055 27.121q-1.12 2.36-2.245 4.72-2.299 4.827-4.576 9.664a2032 2032 0 0 1-9.554 19.929c-.305.63-.61 1.261-.926 1.91-6.64 13.7-13.383 27.349-20.158 40.981a3005 3005 0 0 0-3.69 7.454 3011 3011 0 0 1-5.214 10.494l-1.59 3.231c-.488.976-.978 1.951-1.482 2.957l-1.287 2.592C1834 490 1834 490 1831 492c-2.138.247-2.138.247-4.64.243l-2.84.01-3.06-.023h-3.14q-3.285-.006-6.572-.024c-3.367-.018-6.733-.02-10.1-.02l-6.375-.018-3.07-.003-2.823-.02-2.496-.011C1784 492 1784 492 1783 491c.275-6.706 3.123-11.945 6.11-17.855l1.57-3.173q1.663-3.352 3.338-6.698c2.896-5.787 5.762-11.59 8.63-17.391l1.7-3.431a912 912 0 0 0 12.027-25.264 737 737 0 0 1 12.598-26.164c3.34-6.607 6.544-13.272 9.715-19.961q2.032-4.254 4.08-8.502 1.161-2.414 2.313-4.832c4.647-9.69 10.243-17.241 17.919-24.729.73-.739 1.46-1.477 2.21-2.238 17.778-17.017 43.414-23.898 67.4-23.923m-141.262 1.031 2.65-.009 2.85.006 2.932-.003q3.068 0 6.135.006 4.708.006 9.415-.007 2.977 0 5.955.004l2.857-.006 2.64.01 2.327.002C1831 308 1831 308 1833 309c.367 5.527-.645 9.17-3.262 13.934a2213 2213 0 0 0-2.22 4.25l-1.227 2.328c-2.394 4.613-4.656 9.29-6.936 13.96l-3.052 6.23-1.556 3.177q-2.318 4.732-4.64 9.463c-5.504 11.232-10.966 22.483-16.333 33.782-3.472 7.298-7.08 14.524-10.718 21.74-2.885 5.728-5.659 11.499-8.385 17.303-12.465 26.488-28.856 43.966-56.671 54.208-14.94 4.406-30.583 3.937-46.004 3.926l-6.886.013q-7.178.01-14.354.002c-6.094-.006-12.188.01-18.282.034-4.732.015-9.463.016-14.195.013q-3.367 0-6.737.015c-37.612.15-37.612.15-52.042-13.19-6.53-7.073-8.637-15.151-8.812-24.563l-.114-3.898c.628-12.588 6.574-23.887 12.114-34.914q1.136-2.296 2.269-4.594 2.348-4.757 4.709-9.506c3.306-6.662 6.546-13.357 9.787-20.052 1.75-3.614 3.507-7.225 5.262-10.837q3.854-7.934 7.703-15.872l6.686-13.79q2.938-6.066 5.902-12.118a950 950 0 0 0 3.126-6.511l2.114-4.365.962-2.046c3.176-6.494 3.176-6.494 6.792-8.122 3.32-.414 6.604-.396 9.945-.363l2.928-.002q3.06.004 6.118.029c3.13.023 6.258.02 9.388.014q2.97.007 5.941.021l2.848-.003 2.63.03 2.318.013C1662 309 1662 309 1664 311c-.337 4.456-1.707 7.93-3.668 11.91l-1.686 3.454-1.833 3.699q-.951 1.94-1.899 3.88-1.97 4.03-3.95 8.057a3129 3129 0 0 0-9.026 18.563l-.875 1.806c-4.88 10.086-9.604 20.24-14.287 30.42-4.115 8.897-8.436 17.677-12.907 26.4-8.494 16.68-8.494 16.68-5.869 24.811 3.082 3.424 5.551 4.338 10 5 2.547.107 5.067.167 7.613.177l2.274.02q3.712.028 7.426.041l2.578.013q6.762.03 13.525.044c4.625.011 9.25.046 13.874.085 3.583.027 7.166.035 10.749.038q2.555.008 5.109.035c12.003.124 23.668-.206 33.665-7.765 9.43-9.414 14.217-23.862 19.624-35.797 3.564-7.852 7.36-15.568 11.242-23.266 2.453-4.875 4.89-9.758 7.329-14.64l4.76-9.52 1.951-3.903c13.178-26.356 13.178-26.356 14.775-29.538a512 512 0 0 0 2.919-5.954l1.309-2.701 1.122-2.35c2.817-4.92 5.944-6.143 11.504-6.148m-904.016 5.836 3.005.013c3.159.017 6.317.054 9.476.093q3.217.022 6.435.04 7.875.052 15.752.147c1.107 3.967.96 5.955-.871 9.627-.436.891-.87 1.782-1.32 2.699l-1.47 2.9-1.509 3.064q-1.592 3.226-3.2 6.444c-1.58 3.167-3.14 6.342-4.692 9.523a6650 6650 0 0 1-9.375 19.118c-6.108 12.417-12.2 24.84-18.16 37.328-7.472 15.624-15.174 31.133-22.897 46.634q-2.535 5.093-5.055 10.194-3.09 6.255-6.208 12.496-1.173 2.355-2.335 4.715a989 989 0 0 1-3.248 6.521l-.948 1.945c-1.754 3.46-3.244 5.943-6.712 7.792-2.252.374-2.252.374-4.737.372l-2.83.02-3.035-.029-3.13.002q-3.27-.004-6.54-.029c-3.347-.023-6.694-.02-10.04-.014q-3.177-.007-6.352-.021l-3.046.003-2.812-.03-2.48-.013C787 495 787 495 785 493c.596-4.876 2.727-8.583 5.063-12.812 4.072-7.448 7.881-15.015 11.658-22.615 4.28-8.608 8.576-17.207 12.869-25.808l3.56-7.14c11.313-22.706 11.313-22.706 16.768-32.965 6.231-11.722 12.134-23.612 18.062-35.49q2.47-4.947 4.948-9.893 1.934-3.861 3.863-7.726 1.35-2.702 2.704-5.402l1.661-3.332 1.538-3.082a85 85 0 0 0 2.886-6.841c3.503-7.139 9.732-6.3 16.752-6.187m27.606-56.91 2.656-.017q2.779-.015 5.557-.02c2.838-.01 5.675-.041 8.513-.072q2.7-.01 5.399-.016l2.575-.038c5.913.023 5.913.023 8.12 1.71C949 260 949 260 948.833 262.85c-1.374 5.195-3.748 9.827-6.083 14.65-.478 1.02-.956 2.04-1.45 3.09-2.59 5.4-5.06 10.142-9.3 14.41-2.731.91-4.353 1.13-7.164 1.145l-2.528.02-2.718.003-2.798.01q-2.926.007-5.853.007c-2.993.002-5.987.02-8.98.04q-2.841.005-5.682.005l-2.724.022-2.518-.01c-.366.002-.366.002-2.22.005C887 296 887 296 885 294c.039-7.075 3.606-12.949 6.75-19.125l1.594-3.246c5.5-10.931 8.961-14.769 21.593-14.832"/></svg>